<svg xmlns="http://www.w3.org/2000/svg" width="551.8950805664062" height="539.7962646484375" viewBox="-192.71437072753906 -198.00953674316406 551.8950805664062 539.7962646484375"><title>Neo4j Graph Visualization</title><desc>Created using Neo4j (http://www.neo4j.com/)</desc><g class="layer relationships"><g class="relationship" transform="translate(59.33629220446812 62.88578844617004) rotate(500.34081093558643)"><path class="outline" fill="#A5ABB6" stroke="none" d="M 25 0.5 L 40.344054776393804 0.5 L 40.344054776393804 -0.5 L 25 -0.5 Z M 85.9065547763938 0.5 L 101.25060955278761 0.5 L 101.25060955278761 3.5 L 108.25060955278761 0 L 101.25060955278761 -3.5 L 101.25060955278761 -0.5 L 85.9065547763938 -0.5 Z"/><text text-anchor="middle" pointer-events="none" font-size="8px" fill="#000000" x="63.125304776393804" y="3" transform="rotate(180 63.125304776393804 0)" font-family="sans-serif">ACTED_IN</text></g><g class="relationship" transform="translate(-163.71436522873722 116.77783379141319) rotate(374.49830550145873)"><path class="outline" fill="#A5ABB6" stroke="none" d="M 25 0.5 L 35.9335250913045 0.5 L 35.9335250913045 -0.5 L 25 -0.5 Z M 81.4960250913045 0.5 L 92.429550182609 0.5 L 92.429550182609 3.5 L 99.429550182609 0 L 92.429550182609 -3.5 L 92.429550182609 -0.5 L 81.4960250913045 -0.5 Z"/><text text-anchor="middle" pointer-events="none" font-size="8px" fill="#000000" x="58.7147750913045" y="3" font-family="sans-serif">ACTED_IN</text></g><g class="relationship" transform="translate(-158.75655047407884 201.43342075696134) rotate(335.14619134689406)"><path class="outline" fill="#A5ABB6" stroke="none" d="M 25 0.5 L 37.368422891217534 0.5 L 37.368422891217534 -0.5 L 25 -0.5 Z M 82.93092289121753 0.5 L 95.29934578243507 0.5 L 95.29934578243507 3.5 L 102.29934578243507 0 L 95.29934578243507 -3.5 L 95.29934578243507 -0.5 L 82.93092289121753 -0.5 Z"/><text text-anchor="middle" pointer-events="none" font-size="8px" fill="#000000" x="60.149672891217534" y="3" font-family="sans-serif">ACTED_IN</text></g><g class="relationship" transform="translate(-106.92199781194267 260.24255609521816) rotate(299.5504997121594)"><path class="outline" fill="#A5ABB6" stroke="none" d="M 25 0.5 L 38.27264026427787 0.5 L 38.27264026427787 -0.5 L 25 -0.5 Z M 83.83514026427787 0.5 L 97.10778052855574 0.5 L 97.10778052855574 3.5 L 104.10778052855574 0 L 97.10778052855574 -3.5 L 97.10778052855574 -0.5 L 83.83514026427787 -0.5 Z"/><text text-anchor="middle" pointer-events="none" font-size="8px" fill="#000000" x="61.05389026427787" y="3" font-family="sans-serif">ACTED_IN</text></g><g class="relationship" transform="translate(-31.401856676767 272.20634077190704) rotate(264.55534168606914)"><path class="outline" fill="#A5ABB6" stroke="none" d="M 25 0.5 L 36.13907030297958 0.5 L 36.13907030297958 -0.5 L 25 -0.5 Z M 81.70157030297958 0.5 L 92.84064060595917 0.5 L 92.84064060595917 3.5 L 99.84064060595917 0 L 92.84064060595917 -3.5 L 92.84064060595917 -0.5 L 81.70157030297958 -0.5 Z"/><text text-anchor="middle" pointer-events="none" font-size="8px" fill="#000000" x="58.92032030297958" y="3" transform="rotate(180 58.92032030297958 0)" font-family="sans-serif">ACTED_IN</text></g><g class="relationship" transform="translate(59.33629220446812 62.88578844617004) rotate(351.8313785906605)"><path class="outline" fill="#A5ABB6" stroke="none" d="M 25 0.5 L 44.27025580229525 0.5 L 44.27025580229525 -0.5 L 25 -0.5 Z M 89.83275580229525 0.5 L 109.1030116045905 0.5 L 109.1030116045905 3.5 L 116.1030116045905 0 L 109.1030116045905 -3.5 L 109.1030116045905 -0.5 L 89.83275580229525 -0.5 Z"/><text text-anchor="middle" pointer-events="none" font-size="8px" fill="#000000" x="67.05150580229525" y="3" font-family="sans-serif">ACTED_IN</text></g><g class="relationship" transform="translate(312.05356479733655 104.22476566175358) rotate(208.50350849806273)"><path class="outline" fill="#A5ABB6" stroke="none" d="M 25 0.5 L 38.03794788626651 0.5 L 38.03794788626651 -0.5 L 25 -0.5 Z M 83.60044788626651 0.5 L 96.63839577253302 0.5 L 96.63839577253302 3.5 L 103.63839577253302 0 L 96.63839577253302 -3.5 L 96.63839577253302 -0.5 L 83.60044788626651 -0.5 Z"/><text text-anchor="middle" pointer-events="none" font-size="8px" fill="#000000" x="60.81919788626651" y="3" transform="rotate(180 60.81919788626651 0)" font-family="sans-serif">ACTED_IN</text></g><g class="relationship" transform="translate(290.53833489213815 -44.33267649227621) rotate(496.39798552841984)"><path class="outline" fill="#A5ABB6" stroke="none" d="M 25 0.5 L 36.91762889060313 0.5 L 36.91762889060313 -0.5 L 25 -0.5 Z M 82.48012889060314 0.5 L 94.39775778120627 0.5 L 94.39775778120627 3.5 L 101.39775778120627 0 L 94.39775778120627 -3.5 L 94.39775778120627 -0.5 L 82.48012889060314 -0.5 Z"/><text text-anchor="middle" pointer-events="none" font-size="8px" fill="#000000" x="59.69887889060313" y="3" transform="rotate(180 59.69887889060313 0)" font-family="sans-serif">ACTED_IN</text></g><g class="relationship" transform="translate(330.18072762578106 28.02615765240617) rotate(533.5580159793627)"><path class="outline" fill="#A5ABB6" stroke="none" d="M 25 0.5 L 39.72201015935413 0.5 L 39.72201015935413 -0.5 L 25 -0.5 Z M 85.28451015935413 0.5 L 100.00652031870825 0.5 L 100.00652031870825 3.5 L 107.00652031870825 0 L 100.00652031870825 -3.5 L 100.00652031870825 -0.5 L 85.28451015935413 -0.5 Z"/><text text-anchor="middle" pointer-events="none" font-size="8px" fill="#000000" x="62.50326015935413" y="3" transform="rotate(180 62.50326015935413 0)" font-family="sans-serif">ACTED_IN</text></g><g class="relationship" transform="translate(59.33629220446812 62.88578844617004) rotate(420.00243577617266)"><path class="outline" fill="#A5ABB6" stroke="none" d="M 25 0.5 L 44.04807917221645 0.5 L 44.04807917221645 -0.5 L 25 -0.5 Z M 89.61057917221645 0.5 L 108.6586583444329 0.5 L 108.6586583444329 3.5 L 115.6586583444329 0 L 108.6586583444329 -3.5 L 108.6586583444329 -0.5 L 89.61057917221645 -0.5 Z"/><text text-anchor="middle" pointer-events="none" font-size="8px" fill="#000000" x="66.82932917221645" y="3" font-family="sans-serif">ACTED_IN</text></g><g class="relationship" transform="translate(253.03769298571484 212.88677463945209) rotate(192.86772400635857)"><path class="outline" fill="#A5ABB6" stroke="none" d="M 25 0.5 L 36.996481374166905 0.5 L 36.996481374166905 -0.5 L 25 -0.5 Z M 82.5589813741669 0.5 L 94.55546274833381 0.5 L 94.55546274833381 3.5 L 101.55546274833381 0 L 94.55546274833381 -3.5 L 94.55546274833381 -0.5 L 82.5589813741669 -0.5 Z"/><text text-anchor="middle" pointer-events="none" font-size="8px" fill="#000000" x="59.777731374166905" y="3" transform="rotate(180 59.777731374166905 0)" font-family="sans-serif">ACTED_IN</text></g><g class="relationship" transform="translate(91.5608976248612 304.4049165432972) rotate(287.65555368045904)"><path class="outline" fill="#A5ABB6" stroke="none" d="M 25 0.5 L 36.52835139661328 0.5 L 36.52835139661328 -0.5 L 25 -0.5 Z M 82.09085139661329 0.5 L 93.61920279322656 0.5 L 93.61920279322656 3.5 L 100.61920279322656 0 L 93.61920279322656 -3.5 L 93.61920279322656 -0.5 L 82.09085139661329 -0.5 Z"/><text text-anchor="middle" pointer-events="none" font-size="8px" fill="#000000" x="59.30960139661328" y="3" font-family="sans-serif">ACTED_IN</text></g><g class="relationship" transform="translate(163.43205388853653 312.78671234565087) rotate(255.22911966810017)"><path class="outline" fill="#A5ABB6" stroke="none" d="M 25 0.5 L 39.94945140971069 0.5 L 39.94945140971069 -0.5 L 25 -0.5 Z M 85.51195140971069 0.5 L 100.46140281942138 0.5 L 100.46140281942138 3.5 L 107.46140281942138 0 L 100.46140281942138 -3.5 L 100.46140281942138 -0.5 L 85.51195140971069 -0.5 Z"/><text text-anchor="middle" pointer-events="none" font-size="8px" fill="#000000" x="62.73070140971069" y="3" transform="rotate(180 62.73070140971069 0)" font-family="sans-serif">ACTED_IN</text></g><g class="relationship" transform="translate(225.0594013760876 278.6108960280258) rotate(224.54879938468997)"><path class="outline" fill="#A5ABB6" stroke="none" d="M 25 0.5 L 40.65099424886381 0.5 L 40.65099424886381 -0.5 L 25 -0.5 Z M 86.21349424886381 0.5 L 101.86448849772762 0.5 L 101.86448849772762 3.5 L 108.86448849772762 0 L 101.86448849772762 -3.5 L 101.86448849772762 -0.5 L 86.21349424886381 -0.5 Z"/><text text-anchor="middle" pointer-events="none" font-size="8px" fill="#000000" x="63.43224424886381" y="3" transform="rotate(180 63.43224424886381 0)" font-family="sans-serif">ACTED_IN</text></g><g class="relationship" transform="translate(59.33629220446812 62.88578844617004) rotate(224.3748896413756)"><path class="outline" fill="#A5ABB6" stroke="none" d="M 25 0.5 L 50.15270761171111 0.5 L 50.15270761171111 -0.5 L 25 -0.5 Z M 95.71520761171111 0.5 L 120.86791522342222 0.5 L 120.86791522342222 3.5 L 127.86791522342222 0 L 120.86791522342222 -3.5 L 120.86791522342222 -0.5 L 95.71520761171111 -0.5 Z"/><text text-anchor="middle" pointer-events="none" font-size="8px" fill="#000000" x="72.93395761171111" y="3" transform="rotate(180 72.93395761171111 0)" font-family="sans-serif">ACTED_IN</text></g><g class="relationship" transform="translate(-92.6374802164859 -147.59438028104913) rotate(427.59164295692995)"><path class="outline" fill="#A5ABB6" stroke="none" d="M 25 0.5 L 29.734455881236592 0.5 L 29.734455881236592 -0.5 L 25 -0.5 Z M 75.29695588123658 0.5 L 80.03141176247318 0.5 L 80.03141176247318 3.5 L 87.03141176247318 0 L 80.03141176247318 -3.5 L 80.03141176247318 -0.5 L 75.29695588123658 -0.5 Z"/><text text-anchor="middle" pointer-events="none" font-size="8px" fill="#000000" x="52.51570588123659" y="3" font-family="sans-serif">ACTED_IN</text></g><g class="relationship" transform="translate(26.536911371301546 -169.00952984483985) rotate(481.4583991469988)"><path class="outline" fill="#A5ABB6" stroke="none" d="M 25 0.5 L 46.980349872034125 0.5 L 46.980349872034125 -0.5 L 25 -0.5 Z M 92.54284987203413 0.5 L 114.52319974406825 0.5 L 114.52319974406825 3.5 L 121.52319974406825 0 L 114.52319974406825 -3.5 L 114.52319974406825 -0.5 L 92.54284987203413 -0.5 Z"/><text text-anchor="middle" pointer-events="none" font-size="8px" fill="#000000" x="69.76159987203413" y="3" transform="rotate(180 69.76159987203413 0)" font-family="sans-serif">ACTED_IN</text></g><g class="relationship" transform="translate(-31.94373261314896 -155.65305224285842) rotate(459.1532652890229)"><path class="outline" fill="#A5ABB6" stroke="none" d="M 25 0.5 L 30.253970490835613 0.5 L 30.253970490835613 -0.5 L 25 -0.5 Z M 75.81647049083561 0.5 L 81.07044098167123 0.5 L 81.07044098167123 3.5 L 88.07044098167123 0 L 81.07044098167123 -3.5 L 81.07044098167123 -0.5 L 75.81647049083561 -0.5 Z"/><text text-anchor="middle" pointer-events="none" font-size="8px" fill="#000000" x="53.03522049083561" y="3" transform="rotate(180 53.03522049083561 0)" font-family="sans-serif">ACTED_IN</text></g><g class="relationship" transform="translate(59.33629220446812 62.88578844617004) rotate(247.153370258824)"><path class="outline" fill="#A5ABB6" stroke="none" d="M 25 0.5 L 39.437690771427086 0.5 L 39.437690771427086 -0.5 L 25 -0.5 Z M 85.00019077142709 0.5 L 99.43788154285417 0.5 L 99.43788154285417 3.5 L 106.43788154285417 0 L 99.43788154285417 -3.5 L 99.43788154285417 -0.5 L 85.00019077142709 -0.5 Z"/><text text-anchor="middle" pointer-events="none" font-size="8px" fill="#000000" x="62.218940771427086" y="3" transform="rotate(180 62.218940771427086 0)" font-family="sans-serif">ACTED_IN</text></g><g class="relationship" transform="translate(-92.6374802164859 -147.59438028104913) rotate(401.5155698913779)"><path class="outline" fill="#A5ABB6" stroke="none" d="M 25 0.5 L 41.12275341637759 0.5 L 41.12275341637759 -0.5 L 25 -0.5 Z M 86.68525341637759 0.5 L 102.80800683275518 0.5 L 102.80800683275518 3.5 L 109.80800683275518 0 L 102.80800683275518 -3.5 L 102.80800683275518 -0.5 L 86.68525341637759 -0.5 Z"/><text text-anchor="middle" pointer-events="none" font-size="8px" fill="#000000" x="63.90400341637759" y="3" font-family="sans-serif">ACTED_IN</text></g><g class="relationship" transform="translate(26.536911371301546 -169.00952984483985) rotate(459.3475020353904)"><path class="outline" fill="#A5ABB6" stroke="none" d="M 25 0.5 L 29.848611725052457 0.5 L 29.848611725052457 -0.5 L 25 -0.5 Z M 75.41111172505245 0.5 L 80.25972345010491 0.5 L 80.25972345010491 3.5 L 87.25972345010491 0 L 80.25972345010491 -3.5 L 80.25972345010491 -0.5 L 75.41111172505245 -0.5 Z"/><text text-anchor="middle" pointer-events="none" font-size="8px" fill="#000000" x="52.62986172505246" y="3" transform="rotate(180 52.62986172505246 0)" font-family="sans-serif">ACTED_IN</text></g><g class="relationship" transform="translate(-31.94373261314896 -155.65305224285842) rotate(427.5514354680753)"><path class="outline" fill="#A5ABB6" stroke="none" d="M 25 0.5 L 26.418490718951517 0.5 L 26.418490718951517 -0.5 L 25 -0.5 Z M 71.98099071895152 0.5 L 73.39948143790303 0.5 L 73.39948143790303 3.5 L 80.39948143790303 0 L 73.39948143790303 -3.5 L 73.39948143790303 -0.5 L 71.98099071895152 -0.5 Z"/><text text-anchor="middle" pointer-events="none" font-size="8px" fill="#000000" x="49.19974071895152" y="3" font-family="sans-serif">ACTED_IN</text></g><g class="relationship" transform="translate(59.33629220446812 62.88578844617004) rotate(271.18343621757685)"><path class="outline" fill="#A5ABB6" stroke="none" d="M 25 0.5 L 47.32763898685664 0.5 L 47.32763898685664 -0.5 L 25 -0.5 Z M 92.89013898685664 0.5 L 115.21777797371328 0.5 L 115.21777797371328 3.5 L 122.21777797371328 0 L 115.21777797371328 -3.5 L 115.21777797371328 -0.5 L 92.89013898685664 -0.5 Z"/><text text-anchor="middle" pointer-events="none" font-size="8px" fill="#000000" x="70.10888898685664" y="3" font-family="sans-serif">ACTED_IN</text></g><g class="relationship" transform="translate(192.76596989696034 -145.9480782293682) rotate(514.6953917881563)"><path class="outline" fill="#A5ABB6" stroke="none" d="M 25 0.5 L 45.83278945799226 0.5 L 45.83278945799226 -0.5 L 25 -0.5 Z M 91.39528945799226 0.5 L 112.22807891598453 0.5 L 112.22807891598453 3.5 L 119.22807891598453 0 L 112.22807891598453 -3.5 L 112.22807891598453 -0.5 L 91.39528945799226 -0.5 Z"/><text text-anchor="middle" pointer-events="none" font-size="8px" fill="#000000" x="68.61403945799226" y="3" transform="rotate(180 68.61403945799226 0)" font-family="sans-serif">ACTED_IN</text></g><g class="relationship" transform="translate(-92.6374802164859 -147.59438028104913) rotate(382.21065203247724)"><path class="outline" fill="#A5ABB6" stroke="none" d="M 25 0.5 L 57.43783860253235 0.5 L 57.43783860253235 -0.5 L 25 -0.5 Z M 103.00033860253235 0.5 L 135.4381772050647 0.5 L 135.4381772050647 3.5 L 142.4381772050647 0 L 135.4381772050647 -3.5 L 135.4381772050647 -0.5 L 103.00033860253235 -0.5 Z"/><text text-anchor="middle" pointer-events="none" font-size="8px" fill="#000000" x="80.21908860253235" y="3" font-family="sans-serif">ACTED_IN</text></g><g class="relationship" transform="translate(26.536911371301546 -169.00952984483985) rotate(427.0670228084208)"><path class="outline" fill="#A5ABB6" stroke="none" d="M 25 0.5 L 27.48941535770561 0.5 L 27.48941535770561 -0.5 L 25 -0.5 Z M 57.48941535770561 0.5 L 59.97883071541122 0.5 L 59.97883071541122 3.5 L 66.97883071541122 0 L 59.97883071541122 -3.5 L 59.97883071541122 -0.5 L 57.48941535770561 -0.5 Z"/><text text-anchor="middle" pointer-events="none" font-size="8px" fill="#000000" x="42.48941535770561" y="3" font-family="sans-serif">ACT…</text></g><g class="relationship" transform="translate(-31.94373261314896 -155.65305224285842) rotate(397.1071008383315)"><path class="outline" fill="#A5ABB6" stroke="none" d="M 25 0.5 L 32.85322461439094 0.5 L 32.85322461439094 -0.5 L 25 -0.5 Z M 78.41572461439094 0.5 L 86.26894922878188 0.5 L 86.26894922878188 3.5 L 93.26894922878188 0 L 86.26894922878188 -3.5 L 86.26894922878188 -0.5 L 78.41572461439094 -0.5 Z"/><text text-anchor="middle" pointer-events="none" font-size="8px" fill="#000000" x="55.63447461439094" y="3" font-family="sans-serif">ACTED_IN</text></g></g><g class="layer nodes"><g class="node" transform="translate(59.33629220446812,62.88578844617004)"><circle class="outline" cx="0" cy="0" r="25" fill="#57C7E3" stroke="#23b3d7" stroke-width="2px"/><text text-anchor="middle" pointer-events="none" font-family="sans-serif" dy="1.5625" font-size="25" fill="#2A2C34"/><text text-anchor="middle" pointer-events="none" font-family="sans-serif" dy="1.5625" font-size="25" fill="#2A2C34"/><text text-anchor="middle" pointer-events="none" x="0" y="0" font-size="10px" fill="#2A2C34" font-family="sans-serif"> Hugo</text><text text-anchor="middle" pointer-events="none" x="0" y="10" font-size="10px" fill="#2A2C34" font-family="sans-serif"> Weaving</text></g><g class="node" transform="translate(-163.71436522873722,116.77783379141319)"><circle class="outline" cx="0" cy="0" r="25" fill="#57C7E3" stroke="#23b3d7" stroke-width="2px"/><text text-anchor="middle" pointer-events="none" font-family="sans-serif" dy="1.5625" font-size="25" fill="#2A2C34"/><text text-anchor="middle" pointer-events="none" font-family="sans-serif" dy="1.5625" font-size="25" fill="#2A2C34"/><text text-anchor="middle" pointer-events="none" x="0" y="0" font-size="10px" fill="#2A2C34" font-family="sans-serif"> Chris</text><text text-anchor="middle" pointer-events="none" x="0" y="10" font-size="10px" fill="#2A2C34" font-family="sans-serif"> Evans</text></g><g class="node" transform="translate(-158.75655047407884,201.43342075696134)"><circle class="outline" cx="0" cy="0" r="25" fill="#57C7E3" stroke="#23b3d7" stroke-width="2px"/><text text-anchor="middle" pointer-events="none" font-family="sans-serif" dy="1.5625" font-size="25" fill="#2A2C34"/><text text-anchor="middle" pointer-events="none" font-family="sans-serif" dy="1.5625" font-size="25" fill="#2A2C34"/><text text-anchor="middle" pointer-events="none" x="0" y="0" font-size="10px" fill="#2A2C34" font-family="sans-serif"> Tommy</text><text text-anchor="middle" pointer-events="none" x="0" y="10" font-size="10px" fill="#2A2C34" font-family="sans-serif"> Lee Jon…</text></g><g class="node" transform="translate(-106.92199781194267,260.24255609521816)"><circle class="outline" cx="0" cy="0" r="25" fill="#57C7E3" stroke="#23b3d7" stroke-width="2px"/><text text-anchor="middle" pointer-events="none" font-family="sans-serif" dy="1.5625" font-size="25" fill="#2A2C34"/><text text-anchor="middle" pointer-events="none" font-family="sans-serif" dy="1.5625" font-size="25" fill="#2A2C34"/><text text-anchor="middle" pointer-events="none" x="0" y="0" font-size="10px" fill="#2A2C34" font-family="sans-serif"> Hayley</text><text text-anchor="middle" pointer-events="none" x="0" y="10" font-size="10px" fill="#2A2C34" font-family="sans-serif"> Atwell</text></g><g class="node" transform="translate(-31.401856676767,272.20634077190704)"><circle class="outline" cx="0" cy="0" r="25" fill="#57C7E3" stroke="#23b3d7" stroke-width="2px"/><text text-anchor="middle" pointer-events="none" font-family="sans-serif" dy="1.5625" font-size="25" fill="#2A2C34"/><text text-anchor="middle" pointer-events="none" x="0" y="5" font-size="10px" fill="#2A2C34" font-family="sans-serif"> Sebastian</text></g><g class="node" transform="translate(312.05356479733655,104.22476566175358)"><circle class="outline" cx="0" cy="0" r="25" fill="#57C7E3" stroke="#23b3d7" stroke-width="2px"/><text text-anchor="middle" pointer-events="none" font-family="sans-serif" dy="1.5625" font-size="25" fill="#2A2C34"/><text text-anchor="middle" pointer-events="none" font-family="sans-serif" dy="1.5625" font-size="25" fill="#2A2C34"/><text text-anchor="middle" pointer-events="none" x="0" y="0" font-size="10px" fill="#2A2C34" font-family="sans-serif"> Tom</text><text text-anchor="middle" pointer-events="none" x="0" y="10" font-size="10px" fill="#2A2C34" font-family="sans-serif"> Hanks</text></g><g class="node" transform="translate(290.53833489213815,-44.33267649227621)"><circle class="outline" cx="0" cy="0" r="25" fill="#57C7E3" stroke="#23b3d7" stroke-width="2px"/><text text-anchor="middle" pointer-events="none" font-family="sans-serif" dy="1.5625" font-size="25" fill="#2A2C34"/><text text-anchor="middle" pointer-events="none" font-family="sans-serif" dy="1.5625" font-size="25" fill="#2A2C34"/><text text-anchor="middle" pointer-events="none" x="0" y="0" font-size="10px" fill="#2A2C34" font-family="sans-serif"> Jim</text><text text-anchor="middle" pointer-events="none" x="0" y="10" font-size="10px" fill="#2A2C34" font-family="sans-serif"> Broadb…</text></g><g class="node" transform="translate(330.18072762578106,28.02615765240617)"><circle class="outline" cx="0" cy="0" r="25" fill="#57C7E3" stroke="#23b3d7" stroke-width="2px"/><text text-anchor="middle" pointer-events="none" font-family="sans-serif" dy="1.5625" font-size="25" fill="#2A2C34"/><text text-anchor="middle" pointer-events="none" font-family="sans-serif" dy="1.5625" font-size="25" fill="#2A2C34"/><text text-anchor="middle" pointer-events="none" x="0" y="0" font-size="10px" fill="#2A2C34" font-family="sans-serif"> Halle</text><text text-anchor="middle" pointer-events="none" x="0" y="10" font-size="10px" fill="#2A2C34" font-family="sans-serif"> Berry</text></g><g class="node" transform="translate(253.03769298571484,212.88677463945209)"><circle class="outline" cx="0" cy="0" r="25" fill="#57C7E3" stroke="#23b3d7" stroke-width="2px"/><text text-anchor="middle" pointer-events="none" font-family="sans-serif" dy="1.5625" font-size="25" fill="#2A2C34"/><text text-anchor="middle" pointer-events="none" x="0" y="5" font-size="10px" fill="#2A2C34" font-family="sans-serif"> Ben Miles</text></g><g class="node" transform="translate(91.5608976248612,304.4049165432972)"><circle class="outline" cx="0" cy="0" r="25" fill="#57C7E3" stroke="#23b3d7" stroke-width="2px"/><text text-anchor="middle" pointer-events="none" font-family="sans-serif" dy="1.5625" font-size="25" fill="#2A2C34"/><text text-anchor="middle" pointer-events="none" font-family="sans-serif" dy="1.5625" font-size="25" fill="#2A2C34"/><text text-anchor="middle" pointer-events="none" x="0" y="0" font-size="10px" fill="#2A2C34" font-family="sans-serif"> Natalie</text><text text-anchor="middle" pointer-events="none" x="0" y="10" font-size="10px" fill="#2A2C34" font-family="sans-serif"> Portman</text></g><g class="node" transform="translate(163.43205388853653,312.78671234565087)"><circle class="outline" cx="0" cy="0" r="25" fill="#57C7E3" stroke="#23b3d7" stroke-width="2px"/><text text-anchor="middle" pointer-events="none" font-family="sans-serif" dy="1.5625" font-size="25" fill="#2A2C34"/><text text-anchor="middle" pointer-events="none" x="0" y="5" font-size="10px" fill="#2A2C34" font-family="sans-serif"> John Hurt</text></g><g class="node" transform="translate(225.0594013760876,278.6108960280258)"><circle class="outline" cx="0" cy="0" r="25" fill="#57C7E3" stroke="#23b3d7" stroke-width="2px"/><text text-anchor="middle" pointer-events="none" font-family="sans-serif" dy="1.5625" font-size="25" fill="#2A2C34"/><text text-anchor="middle" pointer-events="none" font-family="sans-serif" dy="1.5625" font-size="25" fill="#2A2C34"/><text text-anchor="middle" pointer-events="none" x="0" y="0" font-size="10px" fill="#2A2C34" font-family="sans-serif"> Stephen</text><text text-anchor="middle" pointer-events="none" x="0" y="10" font-size="10px" fill="#2A2C34" font-family="sans-serif"> Rea</text></g><g class="node" transform="translate(-92.6374802164859,-147.59438028104913)"><circle class="outline" cx="0" cy="0" r="25" fill="#57C7E3" stroke="#23b3d7" stroke-width="2px"/><text text-anchor="middle" pointer-events="none" font-family="sans-serif" dy="1.5625" font-size="25" fill="#2A2C34"/><text text-anchor="middle" pointer-events="none" font-family="sans-serif" dy="1.5625" font-size="25" fill="#2A2C34"/><text text-anchor="middle" pointer-events="none" x="0" y="0" font-size="10px" fill="#2A2C34" font-family="sans-serif"> Laurence</text><text text-anchor="middle" pointer-events="none" x="0" y="10" font-size="10px" fill="#2A2C34" font-family="sans-serif"> Fishbur…</text></g><g class="node" transform="translate(26.536911371301546,-169.00952984483985)"><circle class="outline" cx="0" cy="0" r="25" fill="#57C7E3" stroke="#23b3d7" stroke-width="2px"/><text text-anchor="middle" pointer-events="none" font-family="sans-serif" dy="1.5625" font-size="25" fill="#2A2C34"/><text text-anchor="middle" pointer-events="none" x="0" y="5" font-size="10px" fill="#2A2C34" font-family="sans-serif"> Carrie-A…</text></g><g class="node" transform="translate(-31.94373261314896,-155.65305224285842)"><circle class="outline" cx="0" cy="0" r="25" fill="#57C7E3" stroke="#23b3d7" stroke-width="2px"/><text text-anchor="middle" pointer-events="none" font-family="sans-serif" dy="1.5625" font-size="25" fill="#2A2C34"/><text text-anchor="middle" pointer-events="none" font-family="sans-serif" dy="1.5625" font-size="25" fill="#2A2C34"/><text text-anchor="middle" pointer-events="none" x="0" y="0" font-size="10px" fill="#2A2C34" font-family="sans-serif"> Keanu</text><text text-anchor="middle" pointer-events="none" x="0" y="10" font-size="10px" fill="#2A2C34" font-family="sans-serif"> Reeves</text></g><g class="node" transform="translate(192.76596989696034,-145.9480782293682)"><circle class="outline" cx="0" cy="0" r="25" fill="#57C7E3" stroke="#23b3d7" stroke-width="2px"/><text text-anchor="middle" pointer-events="none" font-family="sans-serif" dy="1.5625" font-size="25" fill="#2A2C34"/><text text-anchor="middle" pointer-events="none" font-family="sans-serif" dy="1.5625" font-size="25" fill="#2A2C34"/><text text-anchor="middle" pointer-events="none" x="0" y="0" font-size="10px" fill="#2A2C34" font-family="sans-serif"> Emil</text><text text-anchor="middle" pointer-events="none" x="0" y="10" font-size="10px" fill="#2A2C34" font-family="sans-serif"> Eifrem</text></g><g class="node" transform="translate(-43.247268492540194,147.92894232061582)"><circle class="outline" cx="0" cy="0" r="25" fill="#F79767" stroke="#f36924" stroke-width="2px"/><text text-anchor="middle" pointer-events="none" font-family="sans-serif" dy="1.5625" font-size="25" fill="#FFFFFF"/><text text-anchor="middle" pointer-events="none" font-family="sans-serif" dy="1.5625" font-size="25" fill="#FFFFFF"/><text text-anchor="middle" pointer-events="none" font-family="sans-serif" dy="1.5625" font-size="25" fill="#FFFFFF"/><text text-anchor="middle" pointer-events="none" x="0" y="-5" font-size="10px" fill="#FFFFFF" font-family="sans-serif"> Captain</text><text text-anchor="middle" pointer-events="none" x="0" y="5" font-size="10px" fill="#FFFFFF" font-family="sans-serif"> America:</text><text text-anchor="middle" pointer-events="none" x="0" y="15" font-size="10px" fill="#FFFFFF" font-family="sans-serif"> The Fi…</text></g><g class="node" transform="translate(199.0077001110685,42.836905752282746)"><circle class="outline" cx="0" cy="0" r="25" fill="#F79767" stroke="#f36924" stroke-width="2px"/><text text-anchor="middle" pointer-events="none" font-family="sans-serif" dy="1.5625" font-size="25" fill="#FFFFFF"/><text text-anchor="middle" pointer-events="none" font-family="sans-serif" dy="1.5625" font-size="25" fill="#FFFFFF"/><text text-anchor="middle" pointer-events="none" x="0" y="0" font-size="10px" fill="#FFFFFF" font-family="sans-serif"> Cloud</text><text text-anchor="middle" pointer-events="none" x="0" y="10" font-size="10px" fill="#FFFFFF" font-family="sans-serif"> Atlas</text></g><g class="node" transform="translate(129.66044271932526,184.70274958713603)"><circle class="outline" cx="0" cy="0" r="25" fill="#F79767" stroke="#f36924" stroke-width="2px"/><text text-anchor="middle" pointer-events="none" font-family="sans-serif" dy="1.5625" font-size="25" fill="#FFFFFF"/><text text-anchor="middle" pointer-events="none" font-family="sans-serif" dy="1.5625" font-size="25" fill="#FFFFFF"/><text text-anchor="middle" pointer-events="none" x="0" y="0" font-size="10px" fill="#FFFFFF" font-family="sans-serif"> V for</text><text text-anchor="middle" pointer-events="none" x="0" y="10" font-size="10px" fill="#FFFFFF" font-family="sans-serif"> Vendetta</text></g><g class="node" transform="translate(-49.930520727137285,-44.02241094248748)"><circle class="outline" cx="0" cy="0" r="25" fill="#F79767" stroke="#f36924" stroke-width="2px"/><text text-anchor="middle" pointer-events="none" font-family="sans-serif" dy="1.5625" font-size="25" fill="#FFFFFF"/><text text-anchor="middle" pointer-events="none" font-family="sans-serif" dy="1.5625" font-size="25" fill="#FFFFFF"/><text text-anchor="middle" pointer-events="none" font-family="sans-serif" dy="1.5625" font-size="25" fill="#FFFFFF"/><text text-anchor="middle" pointer-events="none" x="0" y="-5" font-size="10px" fill="#FFFFFF" font-family="sans-serif"> The</text><text text-anchor="middle" pointer-events="none" x="0" y="5" font-size="10px" fill="#FFFFFF" font-family="sans-serif"> Matrix</text><text text-anchor="middle" pointer-events="none" x="0" y="15" font-size="10px" fill="#FFFFFF" font-family="sans-serif"> Revol…</text></g><g class="node" transform="translate(8.303469877359854,-58.2404587086195)"><circle class="outline" cx="0" cy="0" r="25" fill="#F79767" stroke="#f36924" stroke-width="2px"/><text text-anchor="middle" pointer-events="none" font-family="sans-serif" dy="1.5625" font-size="25" fill="#FFFFFF"/><text text-anchor="middle" pointer-events="none" font-family="sans-serif" dy="1.5625" font-size="25" fill="#FFFFFF"/><text text-anchor="middle" pointer-events="none" font-family="sans-serif" dy="1.5625" font-size="25" fill="#FFFFFF"/><text text-anchor="middle" pointer-events="none" x="0" y="-5" font-size="10px" fill="#FFFFFF" font-family="sans-serif"> The</text><text text-anchor="middle" pointer-events="none" x="0" y="5" font-size="10px" fill="#FFFFFF" font-family="sans-serif"> Matrix</text><text text-anchor="middle" pointer-events="none" x="0" y="15" font-size="10px" fill="#FFFFFF" font-family="sans-serif"> Reloa…</text></g><g class="node" transform="translate(62.37683836951399,-84.30058738575188)"><circle class="outline" cx="0" cy="0" r="25" fill="#F79767" stroke="#f36924" stroke-width="2px"/><text text-anchor="middle" pointer-events="none" font-family="sans-serif" dy="1.5625" font-size="25" fill="#FFFFFF"/><text text-anchor="middle" pointer-events="none" font-family="sans-serif" dy="1.5625" font-size="25" fill="#FFFFFF"/><text text-anchor="middle" pointer-events="none" x="0" y="0" font-size="10px" fill="#FFFFFF" font-family="sans-serif"> The</text><text text-anchor="middle" pointer-events="none" x="0" y="10" font-size="10px" fill="#FFFFFF" font-family="sans-serif"> Matrix</text></g></g></svg>