<svg xmlns="http://www.w3.org/2000/svg" width="510.85833740234375" height="440.7840270996094" viewBox="-217.7527618408203 -130.71749877929688 510.85833740234375 440.7840270996094"><title>Neo4j Graph Visualization</title><desc>Created using Neo4j (http://www.neo4j.com/)</desc><g class="layer relationships"><g class="relationship" transform="translate(12.160241225421611 90.44154662228148) rotate(356.93555504912615)"><path class="outline" fill="#A5ABB6" stroke="none" d="M 25 0.5 L 40.070267680519464 0.5 L 40.070267680519464 -0.5 L 25 -0.5 Z M 85.63276768051946 0.5 L 100.70303536103893 0.5 L 100.70303536103893 3.5 L 107.70303536103893 0 L 100.70303536103893 -3.5 L 100.70303536103893 -0.5 L 85.63276768051946 -0.5 Z"/><text text-anchor="middle" pointer-events="none" font-size="8px" fill="#000000" x="62.851517680519464" y="3" font-family="sans-serif">ACTED_IN</text></g><g class="relationship" transform="translate(264.10560076756815 91.92456679500013) rotate(184.10773879644097)"><path class="outline" fill="#A5ABB6" stroke="none" d="M 25 0.5 L 32.92452844350931 0.5 L 32.92452844350931 -0.5 L 25 -0.5 Z M 79.8151534435093 0.5 L 87.73968188701862 0.5 L 87.73968188701862 3.5 L 94.73968188701862 0 L 87.73968188701862 -3.5 L 87.73968188701862 -0.5 L 79.8151534435093 -0.5 Z"/><text text-anchor="middle" pointer-events="none" font-size="8px" fill="#000000" x="56.36984094350931" y="3" transform="rotate(180 56.36984094350931 0)" font-family="sans-serif">DIRECTED</text></g><g class="relationship" transform="translate(12.160241225421611 90.44154662228148) rotate(497.8057453864098)"><path class="outline" fill="#A5ABB6" stroke="none" d="M 25 0.5 L 29.494201059209615 0.5 L 29.494201059209615 -0.5 L 25 -0.5 Z M 75.05670105920962 0.5 L 79.55090211841923 0.5 L 79.55090211841923 3.5 L 86.55090211841923 0 L 79.55090211841923 -3.5 L 79.55090211841923 -0.5 L 75.05670105920962 -0.5 Z"/><text text-anchor="middle" pointer-events="none" font-size="8px" fill="#000000" x="52.275451059209615" y="3" transform="rotate(180 52.275451059209615 0)" font-family="sans-serif">ACTED_IN</text></g><g class="relationship" transform="translate(-188.75276809829998 225.53462175751415) rotate(333.03472905441197)"><path class="outline" fill="#A5ABB6" stroke="none" d="M 25 0.5 L 39.40189068994307 0.5 L 39.40189068994307 -0.5 L 25 -0.5 Z M 86.29251568994307 0.5 L 100.69440637988615 0.5 L 100.69440637988615 3.5 L 107.69440637988615 0 L 100.69440637988615 -3.5 L 100.69440637988615 -0.5 L 86.29251568994307 -0.5 Z"/><text text-anchor="middle" pointer-events="none" font-size="8px" fill="#000000" x="62.84720318994307" y="3" font-family="sans-serif">DIRECTED</text></g><g class="relationship" transform="translate(-128.00135512662757 268.0734641621863) rotate(299.2486261477576)"><path class="outline" fill="#A5ABB6" stroke="none" d="M 25 0.5 L 31.913287847709782 0.5 L 31.913287847709782 -0.5 L 25 -0.5 Z M 78.80391284770978 0.5 L 85.71720069541956 0.5 L 85.71720069541956 3.5 L 92.71720069541956 0 L 85.71720069541956 -3.5 L 85.71720069541956 -0.5 L 78.80391284770978 -0.5 Z"/><text text-anchor="middle" pointer-events="none" font-size="8px" fill="#000000" x="55.35860034770978" y="3" font-family="sans-serif">DIRECTED</text></g><g class="relationship" transform="translate(-56.79236385784586 281.0665427550004) rotate(263.2509444313768)"><path class="outline" fill="#A5ABB6" stroke="none" d="M 25 0.5 L 31.309493006516263 0.5 L 31.309493006516263 -0.5 L 25 -0.5 Z M 78.20011800651626 0.5 L 84.50961101303253 0.5 L 84.50961101303253 3.5 L 91.50961101303253 0 L 84.50961101303253 -3.5 L 84.50961101303253 -0.5 L 78.20011800651626 -0.5 Z"/><text text-anchor="middle" pointer-events="none" font-size="8px" fill="#000000" x="54.75480550651626" y="3" transform="rotate(180 54.75480550651626 0)" font-family="sans-serif">DIRECTED</text></g><g class="relationship" transform="translate(12.160241225421611 90.44154662228148) rotate(294.81537697426006)"><path class="outline" fill="#A5ABB6" stroke="none" d="M 25 0.5 L 36.55925094883962 0.5 L 36.55925094883962 -0.5 L 25 -0.5 Z M 82.12175094883962 0.5 L 93.68100189767924 0.5 L 93.68100189767924 3.5 L 100.68100189767924 0 L 93.68100189767924 -3.5 L 93.68100189767924 -0.5 L 82.12175094883962 -0.5 Z"/><text text-anchor="middle" pointer-events="none" font-size="8px" fill="#000000" x="59.34050094883962" y="3" font-family="sans-serif">ACTED_IN</text></g><g class="relationship" transform="translate(151.39886888471096 -101.71748774913927) rotate(497.9246916752668)"><path class="outline" fill="#A5ABB6" stroke="none" d="M 25 0.5 L 31.31614931250372 0.5 L 31.31614931250372 -0.5 L 25 -0.5 Z M 78.20677431250371 0.5 L 84.52292362500744 0.5 L 84.52292362500744 3.5 L 91.52292362500744 0 L 84.52292362500744 -3.5 L 84.52292362500744 -0.5 L 78.20677431250371 -0.5 Z"/><text text-anchor="middle" pointer-events="none" font-size="8px" fill="#000000" x="54.76146181250372" y="3" transform="rotate(180 54.76146181250372 0)" font-family="sans-serif">DIRECTED</text></g><g class="relationship" transform="translate(12.160241225421611 90.44154662228148) rotate(522.2908293300161)"><path class="outline" fill="#A5ABB6" stroke="none" d="M 25 0.5 L 53.74288377552028 0.5 L 53.74288377552028 -0.5 L 25 -0.5 Z M 99.30538377552028 0.5 L 128.04826755104057 0.5 L 128.04826755104057 3.5 L 135.04826755104057 0 L 128.04826755104057 -3.5 L 128.04826755104057 -0.5 L 99.30538377552028 -0.5 Z"/><text text-anchor="middle" pointer-events="none" font-size="8px" fill="#000000" x="76.52413377552028" y="3" transform="rotate(180 76.52413377552028 0)" font-family="sans-serif">ACTED_IN</text></g><g class="relationship" transform="translate(-128.00135512662757 268.0734641621863) rotate(264.55010660699594)"><path class="outline" fill="#A5ABB6" stroke="none" d="M 25 0.5 L 37.82123031273386 0.5 L 37.82123031273386 -0.5 L 25 -0.5 Z M 84.71185531273386 0.5 L 97.53308562546772 0.5 L 97.53308562546772 3.5 L 104.53308562546772 0 L 97.53308562546772 -3.5 L 97.53308562546772 -0.5 L 84.71185531273386 -0.5 Z"/><text text-anchor="middle" pointer-events="none" font-size="8px" fill="#000000" x="61.26654281273386" y="3" transform="rotate(180 61.26654281273386 0)" font-family="sans-serif">DIRECTED</text></g><g class="relationship" transform="translate(-56.79236385784586 281.0665427550004) rotate(239.52937599527775)"><path class="outline" fill="#A5ABB6" stroke="none" d="M 25 0.5 L 55.397416009143626 0.5 L 55.397416009143626 -0.5 L 25 -0.5 Z M 102.28804100914363 0.5 L 132.68545701828725 0.5 L 132.68545701828725 3.5 L 139.68545701828725 0 L 132.68545701828725 -3.5 L 132.68545701828725 -0.5 L 102.28804100914363 -0.5 Z"/><text text-anchor="middle" pointer-events="none" font-size="8px" fill="#000000" x="78.84272850914363" y="3" transform="rotate(180 78.84272850914363 0)" font-family="sans-serif">DIRECTED</text></g><g class="relationship" transform="translate(12.160241225421611 90.44154662228148) rotate(442.44606090883633)"><path class="outline" fill="#A5ABB6" stroke="none" d="M 25 0.5 L 43.74004739587822 0.5 L 43.74004739587822 -0.5 L 25 -0.5 Z M 89.30254739587822 0.5 L 108.04259479175644 0.5 L 108.04259479175644 3.5 L 115.04259479175644 0 L 108.04259479175644 -3.5 L 108.04259479175644 -0.5 L 89.30254739587822 -0.5 Z"/><text text-anchor="middle" pointer-events="none" font-size="8px" fill="#000000" x="66.52129739587822" y="3" font-family="sans-serif">ACTED_IN</text></g><g class="relationship" transform="translate(-128.00135512662757 268.0734641621863) rotate(346.2491575854756)"><path class="outline" fill="#A5ABB6" stroke="none" d="M 25 0.5 L 54.67994630456903 0.5 L 54.67994630456903 -0.5 L 25 -0.5 Z M 101.57057130456903 0.5 L 131.25051760913806 0.5 L 131.25051760913806 3.5 L 138.25051760913806 0 L 131.25051760913806 -3.5 L 131.25051760913806 -0.5 L 101.57057130456903 -0.5 Z"/><text text-anchor="middle" pointer-events="none" font-size="8px" fill="#000000" x="78.12525880456903" y="3" font-family="sans-serif">DIRECTED</text></g><g class="relationship" transform="translate(-56.79236385784586 281.0665427550004) rotate(329.3360514471003)"><path class="outline" fill="#A5ABB6" stroke="none" d="M 25 0.5 L 25.393263273983173 0.5 L 25.393263273983173 -0.5 L 25 -0.5 Z M 69.17060702398317 0.5 L 69.56387029796635 0.5 L 69.56387029796635 3.5 L 76.56387029796635 0 L 69.56387029796635 -3.5 L 69.56387029796635 -0.5 L 69.17060702398317 -0.5 Z"/><text text-anchor="middle" pointer-events="none" font-size="8px" fill="#000000" x="47.28193514898317" y="3" font-family="sans-serif">DIRECT…</text></g><g class="relationship" transform="translate(12.160241225421611 90.44154662228148) rotate(465.38993094815623)"><path class="outline" fill="#A5ABB6" stroke="none" d="M 25 0.5 L 25.822772018417787 0.5 L 25.822772018417787 -0.5 L 25 -0.5 Z M 71.3852720184178 0.5 L 72.20804403683557 0.5 L 72.20804403683557 3.5 L 79.20804403683557 0 L 72.20804403683557 -3.5 L 72.20804403683557 -0.5 L 71.3852720184178 -0.5 Z"/><text text-anchor="middle" pointer-events="none" font-size="8px" fill="#000000" x="48.60402201841779" y="3" transform="rotate(180 48.60402201841779 0)" font-family="sans-serif">ACTED_IN</text></g><g class="relationship" transform="translate(-128.00135512662757 268.0734641621863) rotate(325.55634426990514)"><path class="outline" fill="#A5ABB6" stroke="none" d="M 25 0.5 L 41.26647168676077 0.5 L 41.26647168676077 -0.5 L 25 -0.5 Z M 88.15709668676077 0.5 L 104.42356837352153 0.5 L 104.42356837352153 3.5 L 111.42356837352153 0 L 104.42356837352153 -3.5 L 104.42356837352153 -0.5 L 88.15709668676077 -0.5 Z"/><text text-anchor="middle" pointer-events="none" font-size="8px" fill="#000000" x="64.71178418676077" y="3" font-family="sans-serif">DIRECTED</text></g><g class="relationship" transform="translate(-56.79236385784586 281.0665427550004) rotate(294.61135795068486)"><path class="outline" fill="#A5ABB6" stroke="none" d="M 25 0.5 L 26.63577097755409 0.5 L 26.63577097755409 -0.5 L 25 -0.5 Z M 65.52639597755409 0.5 L 67.16216695510818 0.5 L 67.16216695510818 3.5 L 74.16216695510818 0 L 67.16216695510818 -3.5 L 67.16216695510818 -0.5 L 65.52639597755409 -0.5 Z"/><text text-anchor="middle" pointer-events="none" font-size="8px" fill="#000000" x="46.08108347755409" y="3" font-family="sans-serif">DIREC…</text></g></g><g class="layer nodes"><g class="node" transform="translate(12.160241225421611,90.44154662228148)"><circle class="outline" cx="0" cy="0" r="25" fill="#57C7E3" stroke="#23b3d7" stroke-width="2px"/><text text-anchor="middle" pointer-events="none" font-family="sans-serif" dy="1.5625" font-size="25" fill="#2A2C34"/><text text-anchor="middle" pointer-events="none" font-family="sans-serif" dy="1.5625" font-size="25" fill="#2A2C34"/><text text-anchor="middle" pointer-events="none" x="0" y="0" font-size="10px" fill="#2A2C34" font-family="sans-serif"> Hugo</text><text text-anchor="middle" pointer-events="none" x="0" y="10" font-size="10px" fill="#2A2C34" font-family="sans-serif"> Weaving</text></g><g class="node" transform="translate(264.10560076756815,91.92456679500013)"><circle class="outline" cx="0" cy="0" r="25" fill="#57C7E3" stroke="#23b3d7" stroke-width="2px"/><text text-anchor="middle" pointer-events="none" font-family="sans-serif" dy="1.5625" font-size="25" fill="#2A2C34"/><text text-anchor="middle" pointer-events="none" font-family="sans-serif" dy="1.5625" font-size="25" fill="#2A2C34"/><text text-anchor="middle" pointer-events="none" x="0" y="0" font-size="10px" fill="#2A2C34" font-family="sans-serif"> Joe</text><text text-anchor="middle" pointer-events="none" x="0" y="10" font-size="10px" fill="#2A2C34" font-family="sans-serif"> Johnston</text></g><g class="node" transform="translate(-188.75276809829998,225.53462175751415)"><circle class="outline" cx="0" cy="0" r="25" fill="#57C7E3" stroke="#23b3d7" stroke-width="2px"/><text text-anchor="middle" pointer-events="none" font-family="sans-serif" dy="1.5625" font-size="25" fill="#2A2C34"/><text text-anchor="middle" pointer-events="none" font-family="sans-serif" dy="1.5625" font-size="25" fill="#2A2C34"/><text text-anchor="middle" pointer-events="none" x="0" y="0" font-size="10px" fill="#2A2C34" font-family="sans-serif"> Tom</text><text text-anchor="middle" pointer-events="none" x="0" y="10" font-size="10px" fill="#2A2C34" font-family="sans-serif"> Tykwer</text></g><g class="node" transform="translate(-128.00135512662757,268.0734641621863)"><circle class="outline" cx="0" cy="0" r="25" fill="#57C7E3" stroke="#23b3d7" stroke-width="2px"/><text text-anchor="middle" pointer-events="none" font-family="sans-serif" dy="1.5625" font-size="25" fill="#2A2C34"/><text text-anchor="middle" pointer-events="none" font-family="sans-serif" dy="1.5625" font-size="25" fill="#2A2C34"/><text text-anchor="middle" pointer-events="none" x="0" y="0" font-size="10px" fill="#2A2C34" font-family="sans-serif"> Lana</text><text text-anchor="middle" pointer-events="none" x="0" y="10" font-size="10px" fill="#2A2C34" font-family="sans-serif"> Wacho…</text></g><g class="node" transform="translate(-56.79236385784586,281.0665427550004)"><circle class="outline" cx="0" cy="0" r="25" fill="#57C7E3" stroke="#23b3d7" stroke-width="2px"/><text text-anchor="middle" pointer-events="none" font-family="sans-serif" dy="1.5625" font-size="25" fill="#2A2C34"/><text text-anchor="middle" pointer-events="none" font-family="sans-serif" dy="1.5625" font-size="25" fill="#2A2C34"/><text text-anchor="middle" pointer-events="none" x="0" y="0" font-size="10px" fill="#2A2C34" font-family="sans-serif"> Andy</text><text text-anchor="middle" pointer-events="none" x="0" y="10" font-size="10px" fill="#2A2C34" font-family="sans-serif"> Wacho…</text></g><g class="node" transform="translate(151.39886888471096,-101.71748774913927)"><circle class="outline" cx="0" cy="0" r="25" fill="#57C7E3" stroke="#23b3d7" stroke-width="2px"/><text text-anchor="middle" pointer-events="none" font-family="sans-serif" dy="1.5625" font-size="25" fill="#2A2C34"/><text text-anchor="middle" pointer-events="none" font-family="sans-serif" dy="1.5625" font-size="25" fill="#2A2C34"/><text text-anchor="middle" pointer-events="none" x="0" y="0" font-size="10px" fill="#2A2C34" font-family="sans-serif"> James</text><text text-anchor="middle" pointer-events="none" x="0" y="10" font-size="10px" fill="#2A2C34" font-family="sans-serif"> Marshall</text></g><g class="node" transform="translate(144.67351613135065,83.34735408621204)"><circle class="outline" cx="0" cy="0" r="25" fill="#F79767" stroke="#f36924" stroke-width="2px"/><text text-anchor="middle" pointer-events="none" font-family="sans-serif" dy="1.5625" font-size="25" fill="#FFFFFF"/><text text-anchor="middle" pointer-events="none" font-family="sans-serif" dy="1.5625" font-size="25" fill="#FFFFFF"/><text text-anchor="middle" pointer-events="none" font-family="sans-serif" dy="1.5625" font-size="25" fill="#FFFFFF"/><text text-anchor="middle" pointer-events="none" x="0" y="-5" font-size="10px" fill="#FFFFFF" font-family="sans-serif"> Captain</text><text text-anchor="middle" pointer-events="none" x="0" y="5" font-size="10px" fill="#FFFFFF" font-family="sans-serif"> America:</text><text text-anchor="middle" pointer-events="none" x="0" y="15" font-size="10px" fill="#FFFFFF" font-family="sans-serif"> The Fi…</text></g><g class="node" transform="translate(-70.4846931463213,165.36429741350278)"><circle class="outline" cx="0" cy="0" r="25" fill="#F79767" stroke="#f36924" stroke-width="2px"/><text text-anchor="middle" pointer-events="none" font-family="sans-serif" dy="1.5625" font-size="25" fill="#FFFFFF"/><text text-anchor="middle" pointer-events="none" font-family="sans-serif" dy="1.5625" font-size="25" fill="#FFFFFF"/><text text-anchor="middle" pointer-events="none" x="0" y="0" font-size="10px" fill="#FFFFFF" font-family="sans-serif"> Cloud</text><text text-anchor="middle" pointer-events="none" x="0" y="10" font-size="10px" fill="#FFFFFF" font-family="sans-serif"> Atlas</text></g><g class="node" transform="translate(64.90801673990829,-23.63468410208009)"><circle class="outline" cx="0" cy="0" r="25" fill="#F79767" stroke="#f36924" stroke-width="2px"/><text text-anchor="middle" pointer-events="none" font-family="sans-serif" dy="1.5625" font-size="25" fill="#FFFFFF"/><text text-anchor="middle" pointer-events="none" font-family="sans-serif" dy="1.5625" font-size="25" fill="#FFFFFF"/><text text-anchor="middle" pointer-events="none" x="0" y="0" font-size="10px" fill="#FFFFFF" font-family="sans-serif"> V for</text><text text-anchor="middle" pointer-events="none" x="0" y="10" font-size="10px" fill="#FFFFFF" font-family="sans-serif"> Vendetta</text></g><g class="node" transform="translate(-140.3037880233911,139.12591507157592)"><circle class="outline" cx="0" cy="0" r="25" fill="#F79767" stroke="#f36924" stroke-width="2px"/><text text-anchor="middle" pointer-events="none" font-family="sans-serif" dy="1.5625" font-size="25" fill="#FFFFFF"/><text text-anchor="middle" pointer-events="none" font-family="sans-serif" dy="1.5625" font-size="25" fill="#FFFFFF"/><text text-anchor="middle" pointer-events="none" font-family="sans-serif" dy="1.5625" font-size="25" fill="#FFFFFF"/><text text-anchor="middle" pointer-events="none" x="0" y="-5" font-size="10px" fill="#FFFFFF" font-family="sans-serif"> The</text><text text-anchor="middle" pointer-events="none" x="0" y="5" font-size="10px" fill="#FFFFFF" font-family="sans-serif"> Matrix</text><text text-anchor="middle" pointer-events="none" x="0" y="15" font-size="10px" fill="#FFFFFF" font-family="sans-serif"> Revol…</text></g><g class="node" transform="translate(30.570170021505454,229.26878774494878)"><circle class="outline" cx="0" cy="0" r="25" fill="#F79767" stroke="#f36924" stroke-width="2px"/><text text-anchor="middle" pointer-events="none" font-family="sans-serif" dy="1.5625" font-size="25" fill="#FFFFFF"/><text text-anchor="middle" pointer-events="none" font-family="sans-serif" dy="1.5625" font-size="25" fill="#FFFFFF"/><text text-anchor="middle" pointer-events="none" font-family="sans-serif" dy="1.5625" font-size="25" fill="#FFFFFF"/><text text-anchor="middle" pointer-events="none" x="0" y="-5" font-size="10px" fill="#FFFFFF" font-family="sans-serif"> The</text><text text-anchor="middle" pointer-events="none" x="0" y="5" font-size="10px" fill="#FFFFFF" font-family="sans-serif"> Matrix</text><text text-anchor="middle" pointer-events="none" x="0" y="15" font-size="10px" fill="#FFFFFF" font-family="sans-serif"> Reloa…</text></g><g class="node" transform="translate(-15.495186140752924,190.91290462632813)"><circle class="outline" cx="0" cy="0" r="25" fill="#F79767" stroke="#f36924" stroke-width="2px"/><text text-anchor="middle" pointer-events="none" font-family="sans-serif" dy="1.5625" font-size="25" fill="#FFFFFF"/><text text-anchor="middle" pointer-events="none" font-family="sans-serif" dy="1.5625" font-size="25" fill="#FFFFFF"/><text text-anchor="middle" pointer-events="none" x="0" y="0" font-size="10px" fill="#FFFFFF" font-family="sans-serif"> The</text><text text-anchor="middle" pointer-events="none" x="0" y="10" font-size="10px" fill="#FFFFFF" font-family="sans-serif"> Matrix</text></g></g></svg>