<svg xmlns="http://www.w3.org/2000/svg" width="468.3204650878906" height="392.7359313964844" viewBox="-124.30255889892578 -115.15426635742188 468.3204650878906 392.7359313964844"><title>Neo4j Graph Visualization</title><desc>Created using Neo4j (http://www.neo4j.com/)</desc><g class="layer relationships"><g class="relationship" transform="translate(196.48568139899402 51.585474569411254) rotate(191.89302923733806)"><path class="outline" fill="#A5ABB6" stroke="none" d="M 25 0.5 L 47.96341998769056 0.5 L 47.96341998769056 -0.5 L 25 -0.5 Z M 93.52591998769056 0.5 L 116.48933997538111 0.5 L 116.48933997538111 3.5 L 123.48933997538111 0 L 116.48933997538111 -3.5 L 116.48933997538111 -0.5 L 93.52591998769056 -0.5 Z"/><text text-anchor="middle" pointer-events="none" font-size="8px" fill="#000000" x="70.74466998769056" y="3" transform="rotate(180 70.74466998769056 0)" font-family="sans-serif">ACTED_IN</text></g><g class="relationship" transform="translate(196.48568139899402 51.585474569411254) rotate(419.72053580491774)"><path class="outline" fill="#A5ABB6" stroke="none" d="M 25 0.5 L 36.08541083519586 0.5 L 36.08541083519586 -0.5 L 25 -0.5 Z M 81.64791083519586 0.5 L 92.73332167039172 0.5 L 92.73332167039172 3.5 L 99.73332167039172 0 L 92.73332167039172 -3.5 L 92.73332167039172 -0.5 L 81.64791083519586 -0.5 Z"/><text text-anchor="middle" pointer-events="none" font-size="8px" fill="#000000" x="58.86666083519586" y="3" font-family="sans-serif">ACTED_IN</text></g><g class="relationship" transform="translate(196.48568139899402 51.585474569411254) rotate(373.21585458114066)"><path class="outline" fill="#A5ABB6" stroke="none" d="M 25 0.5 L 34.59718959194167 0.5 L 34.59718959194167 -0.5 L 25 -0.5 Z M 80.15968959194167 0.5 L 89.75687918388334 0.5 L 89.75687918388334 3.5 L 96.75687918388334 0 L 89.75687918388334 -3.5 L 89.75687918388334 -0.5 L 80.15968959194167 -0.5 Z"/><text text-anchor="middle" pointer-events="none" font-size="8px" fill="#000000" x="57.37843959194167" y="3" font-family="sans-serif">ACTED_IN</text></g><g class="relationship" transform="translate(196.48568139899402 51.585474569411254) rotate(320.4045144183287)"><path class="outline" fill="#A5ABB6" stroke="none" d="M 25 0.5 L 33.55300014883685 0.5 L 33.55300014883685 -0.5 L 25 -0.5 Z M 79.11550014883684 0.5 L 87.6685002976737 0.5 L 87.6685002976737 3.5 L 94.6685002976737 0 L 87.6685002976737 -3.5 L 87.6685002976737 -0.5 L 79.11550014883684 -0.5 Z"/><text text-anchor="middle" pointer-events="none" font-size="8px" fill="#000000" x="56.33425014883685" y="3" font-family="sans-serif">ACTED_IN</text></g><g class="relationship" transform="translate(196.48568139899402 51.585474569411254) rotate(536.5117338198992)"><path class="outline" fill="#A5ABB6" stroke="none" d="M 25 0.5 L 27.85496383118663 0.5 L 27.85496383118663 -0.5 L 25 -0.5 Z M 63.19090133118663 0.5 L 66.04586516237326 0.5 L 66.04586516237326 3.5 L 73.04586516237326 0 L 66.04586516237326 -3.5 L 66.04586516237326 -0.5 L 63.19090133118663 -0.5 Z"/><text text-anchor="middle" pointer-events="none" font-size="8px" fill="#000000" x="45.52293258118663" y="3" transform="rotate(180 45.52293258118663 0)" font-family="sans-serif">ACTE…</text></g><g class="relationship" transform="translate(196.48568139899402 51.585474569411254) rotate(210.70120704764378)"><path class="outline" fill="#A5ABB6" stroke="none" d="M 25 0.5 L 25.95222654791077 0.5 L 25.95222654791077 -0.5 L 25 -0.5 Z M 71.51472654791077 0.5 L 72.46695309582154 0.5 L 72.46695309582154 3.5 L 79.46695309582154 0 L 72.46695309582154 -3.5 L 72.46695309582154 -0.5 L 71.51472654791077 -0.5 Z"/><text text-anchor="middle" pointer-events="none" font-size="8px" fill="#000000" x="48.73347654791077" y="3" transform="rotate(180 48.73347654791077 0)" font-family="sans-serif">ACTED_IN</text></g><g class="relationship" transform="translate(3.648126554943288 -50.9273427660094) rotate(416.53404293130507)"><path class="outline" fill="#A5ABB6" stroke="none" d="M 25 0.5 L 27.044652798968187 0.5 L 27.044652798968187 -0.5 L 25 -0.5 Z M 52.15793404896819 0.5 L 54.202586847936374 0.5 L 54.202586847936374 3.5 L 61.202586847936374 0 L 54.202586847936374 -3.5 L 54.202586847936374 -0.5 L 52.15793404896819 -0.5 Z"/><text text-anchor="middle" pointer-events="none" font-size="8px" fill="#000000" x="39.60129342396819" y="3" font-family="sans-serif">AC…</text></g><g class="relationship" transform="translate(3.648126554943288 -50.9273427660094) rotate(408.79768568746385)"><path class="outline" fill="#A5ABB6" stroke="none" d="M 25 0.5 L 45.80807676675933 0.5 L 45.80807676675933 -0.5 L 25 -0.5 Z M 91.37057676675933 0.5 L 112.17865353351866 0.5 L 112.17865353351866 3.5 L 119.17865353351866 0 L 112.17865353351866 -3.5 L 112.17865353351866 -0.5 L 91.37057676675933 -0.5 Z"/><text text-anchor="middle" pointer-events="none" font-size="8px" fill="#000000" x="68.58932676675933" y="3" font-family="sans-serif">ACTED_IN</text></g><g class="relationship" transform="translate(3.648126554943288 -50.9273427660094) rotate(385.5188488359662)"><path class="outline" fill="#A5ABB6" stroke="none" d="M 25 0.5 L 30.792970802643815 0.5 L 30.792970802643815 -0.5 L 25 -0.5 Z M 76.35547080264382 0.5 L 82.14844160528763 0.5 L 82.14844160528763 3.5 L 89.14844160528763 0 L 82.14844160528763 -3.5 L 82.14844160528763 -0.5 L 76.35547080264382 -0.5 Z"/><text text-anchor="middle" pointer-events="none" font-size="8px" fill="#000000" x="53.574220802643815" y="3" font-family="sans-serif">ACTED_IN</text></g><g class="relationship" transform="translate(94.86654278995472 -86.1542700368462) rotate(472.18184773094276)"><path class="outline" fill="#A5ABB6" stroke="none" d="M 25 0.5 L 31.569412808631064 0.5 L 31.569412808631064 -0.5 L 25 -0.5 Z M 77.13191280863106 0.5 L 83.70132561726213 0.5 L 83.70132561726213 3.5 L 90.70132561726213 0 L 83.70132561726213 -3.5 L 83.70132561726213 -0.5 L 77.13191280863106 -0.5 Z"/><text text-anchor="middle" pointer-events="none" font-size="8px" fill="#000000" x="54.350662808631064" y="3" transform="rotate(180 54.350662808631064 0)" font-family="sans-serif">ACTED_IN</text></g><g class="relationship" transform="translate(94.86654278995472 -86.1542700368462) rotate(448.50323910749535)"><path class="outline" fill="#A5ABB6" stroke="none" d="M 25 0.5 L 45.595904063834936 0.5 L 45.595904063834936 -0.5 L 25 -0.5 Z M 91.15840406383494 0.5 L 111.75430812766987 0.5 L 111.75430812766987 3.5 L 118.75430812766987 0 L 111.75430812766987 -3.5 L 111.75430812766987 -0.5 L 91.15840406383494 -0.5 Z"/><text text-anchor="middle" pointer-events="none" font-size="8px" fill="#000000" x="68.37715406383494" y="3" font-family="sans-serif">ACTED_IN</text></g><g class="relationship" transform="translate(94.86654278995472 -86.1542700368462) rotate(442.0452393010463)"><path class="outline" fill="#A5ABB6" stroke="none" d="M 25 0.5 L 26.554877011168877 0.5 L 26.554877011168877 -0.5 L 25 -0.5 Z M 51.66815826116888 0.5 L 53.223035272337754 0.5 L 53.223035272337754 3.5 L 60.223035272337754 0 L 53.223035272337754 -3.5 L 53.223035272337754 -0.5 L 51.66815826116888 -0.5 Z"/><text text-anchor="middle" pointer-events="none" font-size="8px" fill="#000000" x="39.11151763616888" y="3" font-family="sans-serif">AC…</text></g><g class="relationship" transform="translate(25.844964287541227 124.15784512177957) rotate(283.79838673374564)"><path class="outline" fill="#A5ABB6" stroke="none" d="M 25 0.5 L 26.838645453097172 0.5 L 26.838645453097172 -0.5 L 25 -0.5 Z M 72.40114545309717 0.5 L 74.23979090619434 0.5 L 74.23979090619434 3.5 L 81.23979090619434 0 L 74.23979090619434 -3.5 L 74.23979090619434 -0.5 L 72.40114545309717 -0.5 Z"/><text text-anchor="middle" pointer-events="none" font-size="8px" fill="#000000" x="49.61989545309717" y="3" font-family="sans-serif">ACTED_IN</text></g><g class="relationship" transform="translate(25.844964287541227 124.15784512177957) rotate(188.82299889874162)"><path class="outline" fill="#A5ABB6" stroke="none" d="M 25 0.5 L 35.01787010428738 0.5 L 35.01787010428738 -0.5 L 25 -0.5 Z M 80.58037010428738 0.5 L 90.59824020857477 0.5 L 90.59824020857477 3.5 L 97.59824020857477 0 L 90.59824020857477 -3.5 L 90.59824020857477 -0.5 L 80.58037010428738 -0.5 Z"/><text text-anchor="middle" pointer-events="none" font-size="8px" fill="#000000" x="57.79912010428738" y="3" transform="rotate(180 57.79912010428738 0)" font-family="sans-serif">ACTED_IN</text></g><g class="relationship" transform="translate(25.844964287541227 124.15784512177957) rotate(501.8283839808056)"><path class="outline" fill="#A5ABB6" stroke="none" d="M 25 0.5 L 35.41808879949677 0.5 L 35.41808879949677 -0.5 L 25 -0.5 Z M 80.98058879949677 0.5 L 91.39867759899354 0.5 L 91.39867759899354 3.5 L 98.39867759899354 0 L 91.39867759899354 -3.5 L 91.39867759899354 -0.5 L 80.98058879949677 -0.5 Z"/><text text-anchor="middle" pointer-events="none" font-size="8px" fill="#000000" x="58.19933879949677" y="3" transform="rotate(180 58.19933879949677 0)" font-family="sans-serif">ACTED_IN</text></g><g class="relationship" transform="translate(25.844964287541227 124.15784512177957) rotate(459.1628621588612)"><path class="outline" fill="#A5ABB6" stroke="none" d="M 25 0.5 L 36.734773807591075 0.5 L 36.734773807591075 -0.5 L 25 -0.5 Z M 82.29727380759107 0.5 L 94.03204761518215 0.5 L 94.03204761518215 3.5 L 101.03204761518215 0 L 94.03204761518215 -3.5 L 94.03204761518215 -0.5 L 82.29727380759107 -0.5 Z"/><text text-anchor="middle" pointer-events="none" font-size="8px" fill="#000000" x="59.516023807591075" y="3" transform="rotate(180 59.516023807591075 0)" font-family="sans-serif">ACTED_IN</text></g><g class="relationship" transform="translate(25.844964287541227 124.15784512177957) rotate(419.03482283377446)"><path class="outline" fill="#A5ABB6" stroke="none" d="M 25 0.5 L 36.61385951803565 0.5 L 36.61385951803565 -0.5 L 25 -0.5 Z M 82.17635951803565 0.5 L 93.7902190360713 0.5 L 93.7902190360713 3.5 L 100.7902190360713 0 L 93.7902190360713 -3.5 L 93.7902190360713 -0.5 L 82.17635951803565 -0.5 Z"/><text text-anchor="middle" pointer-events="none" font-size="8px" fill="#000000" x="59.39510951803565" y="3" font-family="sans-serif">ACTED_IN</text></g><g class="relationship" transform="translate(25.844964287541227 124.15784512177957) rotate(317.53447898312413)"><path class="outline" fill="#A5ABB6" stroke="none" d="M 25 0.5 L 25.271071327203117 0.5 L 25.271071327203117 -0.5 L 25 -0.5 Z M 66.38435257720312 0.5 L 66.65542390440623 0.5 L 66.65542390440623 3.5 L 73.65542390440623 0 L 66.65542390440623 -3.5 L 66.65542390440623 -0.5 L 66.38435257720312 -0.5 Z"/><text text-anchor="middle" pointer-events="none" font-size="8px" fill="#000000" x="45.82771195220312" y="3" font-family="sans-serif">ACTED…</text></g><g class="relationship" transform="translate(25.844964287541227 124.15784512177957) rotate(302.69467348800663)"><path class="outline" fill="#A5ABB6" stroke="none" d="M 25 0.5 L 48.52564200610644 0.5 L 48.52564200610644 -0.5 L 25 -0.5 Z M 94.08814200610644 0.5 L 117.61378401221288 0.5 L 117.61378401221288 3.5 L 124.61378401221288 0 L 117.61378401221288 -3.5 L 117.61378401221288 -0.5 L 94.08814200610644 -0.5 Z"/><text text-anchor="middle" pointer-events="none" font-size="8px" fill="#000000" x="71.30689200610644" y="3" font-family="sans-serif">ACTED_IN</text></g></g><g class="layer nodes"><g class="node" transform="translate(51.18380390954414,20.984028780605538)"><circle class="outline" cx="0" cy="0" r="25" fill="#F79767" stroke="#f36924" stroke-width="2px"/><text text-anchor="middle" pointer-events="none" font-family="sans-serif" dy="1.5625" font-size="25" fill="#FFFFFF"/><text text-anchor="middle" pointer-events="none" font-family="sans-serif" dy="1.5625" font-size="25" fill="#FFFFFF"/><text text-anchor="middle" pointer-events="none" x="0" y="0" font-size="10px" fill="#FFFFFF" font-family="sans-serif"> The</text><text text-anchor="middle" pointer-events="none" x="0" y="10" font-size="10px" fill="#FFFFFF" font-family="sans-serif"> Matrix</text></g><g class="node" transform="translate(259.37848427609543,159.30221830589576)"><circle class="outline" cx="0" cy="0" r="25" fill="#F79767" stroke="#f36924" stroke-width="2px"/><text text-anchor="middle" pointer-events="none" font-family="sans-serif" dy="1.5625" font-size="25" fill="#FFFFFF"/><text text-anchor="middle" pointer-events="none" font-family="sans-serif" dy="1.5625" font-size="25" fill="#FFFFFF"/><text text-anchor="middle" pointer-events="none" font-family="sans-serif" dy="1.5625" font-size="25" fill="#FFFFFF"/><text text-anchor="middle" pointer-events="none" x="0" y="-5" font-size="10px" fill="#FFFFFF" font-family="sans-serif"> Captain</text><text text-anchor="middle" pointer-events="none" x="0" y="5" font-size="10px" fill="#FFFFFF" font-family="sans-serif"> America:</text><text text-anchor="middle" pointer-events="none" x="0" y="15" font-size="10px" fill="#FFFFFF" font-family="sans-serif"> The Fi…</text></g><g class="node" transform="translate(315.01791213657924,79.42156454215386)"><circle class="outline" cx="0" cy="0" r="25" fill="#F79767" stroke="#f36924" stroke-width="2px"/><text text-anchor="middle" pointer-events="none" font-family="sans-serif" dy="1.5625" font-size="25" fill="#FFFFFF"/><text text-anchor="middle" pointer-events="none" font-family="sans-serif" dy="1.5625" font-size="25" fill="#FFFFFF"/><text text-anchor="middle" pointer-events="none" x="0" y="0" font-size="10px" fill="#FFFFFF" font-family="sans-serif"> Cloud</text><text text-anchor="middle" pointer-events="none" x="0" y="10" font-size="10px" fill="#FFFFFF" font-family="sans-serif"> Atlas</text></g><g class="node" transform="translate(288.6978555144473,-24.686833042169866)"><circle class="outline" cx="0" cy="0" r="25" fill="#F79767" stroke="#f36924" stroke-width="2px"/><text text-anchor="middle" pointer-events="none" font-family="sans-serif" dy="1.5625" font-size="25" fill="#FFFFFF"/><text text-anchor="middle" pointer-events="none" font-family="sans-serif" dy="1.5625" font-size="25" fill="#FFFFFF"/><text text-anchor="middle" pointer-events="none" x="0" y="0" font-size="10px" fill="#FFFFFF" font-family="sans-serif"> V for</text><text text-anchor="middle" pointer-events="none" x="0" y="10" font-size="10px" fill="#FFFFFF" font-family="sans-serif"> Vendetta</text></g><g class="node" transform="translate(98.62146778638655,57.550989586927585)"><circle class="outline" cx="0" cy="0" r="25" fill="#F79767" stroke="#f36924" stroke-width="2px"/><text text-anchor="middle" pointer-events="none" font-family="sans-serif" dy="1.5625" font-size="25" fill="#FFFFFF"/><text text-anchor="middle" pointer-events="none" font-family="sans-serif" dy="1.5625" font-size="25" fill="#FFFFFF"/><text text-anchor="middle" pointer-events="none" font-family="sans-serif" dy="1.5625" font-size="25" fill="#FFFFFF"/><text text-anchor="middle" pointer-events="none" x="0" y="-5" font-size="10px" fill="#FFFFFF" font-family="sans-serif"> The</text><text text-anchor="middle" pointer-events="none" x="0" y="5" font-size="10px" fill="#FFFFFF" font-family="sans-serif"> Matrix</text><text text-anchor="middle" pointer-events="none" x="0" y="15" font-size="10px" fill="#FFFFFF" font-family="sans-serif"> Revol…</text></g><g class="node" transform="translate(106.66065809587359,-1.7512808410788763)"><circle class="outline" cx="0" cy="0" r="25" fill="#F79767" stroke="#f36924" stroke-width="2px"/><text text-anchor="middle" pointer-events="none" font-family="sans-serif" dy="1.5625" font-size="25" fill="#FFFFFF"/><text text-anchor="middle" pointer-events="none" font-family="sans-serif" dy="1.5625" font-size="25" fill="#FFFFFF"/><text text-anchor="middle" pointer-events="none" font-family="sans-serif" dy="1.5625" font-size="25" fill="#FFFFFF"/><text text-anchor="middle" pointer-events="none" x="0" y="-5" font-size="10px" fill="#FFFFFF" font-family="sans-serif"> The</text><text text-anchor="middle" pointer-events="none" x="0" y="5" font-size="10px" fill="#FFFFFF" font-family="sans-serif"> Matrix</text><text text-anchor="middle" pointer-events="none" x="0" y="15" font-size="10px" fill="#FFFFFF" font-family="sans-serif"> Reloa…</text></g><g class="node" transform="translate(-95.30255774360464,105.35341989917774)"><circle class="outline" cx="0" cy="0" r="25" fill="#F79767" stroke="#f36924" stroke-width="2px"/><text text-anchor="middle" pointer-events="none" font-family="sans-serif" dy="1.5625" font-size="25" fill="#FFFFFF"/><text text-anchor="middle" pointer-events="none" font-family="sans-serif" dy="1.5625" font-size="25" fill="#FFFFFF"/><text text-anchor="middle" pointer-events="none" x="0" y="0" font-size="10px" fill="#FFFFFF" font-family="sans-serif"> The</text><text text-anchor="middle" pointer-events="none" x="0" y="10" font-size="10px" fill="#FFFFFF" font-family="sans-serif"> Replac…</text></g><g class="node" transform="translate(-71.1665291069471,200.42057378101063)"><circle class="outline" cx="0" cy="0" r="25" fill="#F79767" stroke="#f36924" stroke-width="2px"/><text text-anchor="middle" pointer-events="none" font-family="sans-serif" dy="1.5625" font-size="25" fill="#FFFFFF"/><text text-anchor="middle" pointer-events="none" font-family="sans-serif" dy="1.5625" font-size="25" fill="#FFFFFF"/><text text-anchor="middle" pointer-events="none" x="0" y="0" font-size="10px" fill="#FFFFFF" font-family="sans-serif"> Johnny</text><text text-anchor="middle" pointer-events="none" x="0" y="10" font-size="10px" fill="#FFFFFF" font-family="sans-serif"> Mnemo…</text></g><g class="node" transform="translate(5.775455352291029,248.58168462680953)"><circle class="outline" cx="0" cy="0" r="25" fill="#F79767" stroke="#f36924" stroke-width="2px"/><text text-anchor="middle" pointer-events="none" font-family="sans-serif" dy="1.5625" font-size="25" fill="#FFFFFF"/><text text-anchor="middle" pointer-events="none" x="0" y="5" font-size="10px" fill="#FFFFFF" font-family="sans-serif"> Somethi…</text></g><g class="node" transform="translate(90.56617250173667,232.02046335644675)"><circle class="outline" cx="0" cy="0" r="25" fill="#F79767" stroke="#f36924" stroke-width="2px"/><text text-anchor="middle" pointer-events="none" font-family="sans-serif" dy="1.5625" font-size="25" fill="#FFFFFF"/><text text-anchor="middle" pointer-events="none" font-family="sans-serif" dy="1.5625" font-size="25" fill="#FFFFFF"/><text text-anchor="middle" pointer-events="none" font-family="sans-serif" dy="1.5625" font-size="25" fill="#FFFFFF"/><text text-anchor="middle" pointer-events="none" x="0" y="-5" font-size="10px" fill="#FFFFFF" font-family="sans-serif"> The</text><text text-anchor="middle" pointer-events="none" x="0" y="5" font-size="10px" fill="#FFFFFF" font-family="sans-serif"> Devil's</text><text text-anchor="middle" pointer-events="none" x="0" y="15" font-size="10px" fill="#FFFFFF" font-family="sans-serif"> Advoc…</text></g><g class="node" transform="translate(196.48568139899402,51.585474569411254)"><circle class="outline" cx="0" cy="0" r="25" fill="#57C7E3" stroke="#23b3d7" stroke-width="2px"/><text text-anchor="middle" pointer-events="none" font-family="sans-serif" dy="1.5625" font-size="25" fill="#2A2C34"/><text text-anchor="middle" pointer-events="none" font-family="sans-serif" dy="1.5625" font-size="25" fill="#2A2C34"/><text text-anchor="middle" pointer-events="none" x="0" y="0" font-size="10px" fill="#2A2C34" font-family="sans-serif"> Hugo</text><text text-anchor="middle" pointer-events="none" x="0" y="10" font-size="10px" fill="#2A2C34" font-family="sans-serif"> Weaving</text></g><g class="node" transform="translate(3.648126554943288,-50.9273427660094)"><circle class="outline" cx="0" cy="0" r="25" fill="#57C7E3" stroke="#23b3d7" stroke-width="2px"/><text text-anchor="middle" pointer-events="none" font-family="sans-serif" dy="1.5625" font-size="25" fill="#2A2C34"/><text text-anchor="middle" pointer-events="none" font-family="sans-serif" dy="1.5625" font-size="25" fill="#2A2C34"/><text text-anchor="middle" pointer-events="none" x="0" y="0" font-size="10px" fill="#2A2C34" font-family="sans-serif"> Laurence</text><text text-anchor="middle" pointer-events="none" x="0" y="10" font-size="10px" fill="#2A2C34" font-family="sans-serif"> Fishbur…</text></g><g class="node" transform="translate(94.86654278995472,-86.1542700368462)"><circle class="outline" cx="0" cy="0" r="25" fill="#57C7E3" stroke="#23b3d7" stroke-width="2px"/><text text-anchor="middle" pointer-events="none" font-family="sans-serif" dy="1.5625" font-size="25" fill="#2A2C34"/><text text-anchor="middle" pointer-events="none" x="0" y="5" font-size="10px" fill="#2A2C34" font-family="sans-serif"> Carrie-A…</text></g><g class="node" transform="translate(25.844964287541227,124.15784512177957)"><circle class="outline" cx="0" cy="0" r="25" fill="#57C7E3" stroke="#23b3d7" stroke-width="2px"/><text text-anchor="middle" pointer-events="none" font-family="sans-serif" dy="1.5625" font-size="25" fill="#2A2C34"/><text text-anchor="middle" pointer-events="none" font-family="sans-serif" dy="1.5625" font-size="25" fill="#2A2C34"/><text text-anchor="middle" pointer-events="none" x="0" y="0" font-size="10px" fill="#2A2C34" font-family="sans-serif"> Keanu</text><text text-anchor="middle" pointer-events="none" x="0" y="10" font-size="10px" fill="#2A2C34" font-family="sans-serif"> Reeves</text></g></g></svg>