<svg xmlns="http://www.w3.org/2000/svg" width="284.340576171875" height="283.9680480957031" viewBox="-49.666500091552734 -46.44578552246094 284.340576171875 283.9680480957031"><title>Neo4j Graph Visualization</title><desc>Created using Neo4j (http://www.neo4j.com/)</desc><g class="layer relationships"><g class="relationship" transform="translate(145.73940682000324 200.19094646366668) rotate(243.44192925907305)"><path class="outline" fill="#A5ABB6" stroke="none" d="M 25 0.5 L 33.95235624841441 0.5 L 33.95235624841441 -0.5 L 25 -0.5 Z M 79.51485624841442 0.5 L 88.46721249682882 0.5 L 88.46721249682882 3.5 L 95.46721249682882 0 L 88.46721249682882 -3.5 L 88.46721249682882 -0.5 L 79.51485624841442 -0.5 Z"/><text text-anchor="middle" pointer-events="none" font-size="8px" fill="#000000" x="56.73360624841441" y="3" transform="rotate(180 56.73360624841441 0)" font-family="sans-serif">ACTED_IN</text></g><g class="relationship" transform="translate(202.9049197224893 139.26083833388586) rotate(202.86757828295032)"><path class="outline" fill="#A5ABB6" stroke="none" d="M 25 0.5 L 38.861980938040944 0.5 L 38.861980938040944 -0.5 L 25 -0.5 Z M 74.63541843804094 0.5 L 88.49739937608189 0.5 L 88.49739937608189 3.5 L 95.49739937608189 0 L 88.49739937608189 -3.5 L 88.49739937608189 -0.5 L 74.63541843804094 -0.5 Z"/><text text-anchor="middle" pointer-events="none" font-size="8px" fill="#000000" x="56.748699688040944" y="3" transform="rotate(180 56.748699688040944 0)" font-family="sans-serif">WROTE</text></g><g class="relationship" transform="translate(205.67408520415955 52.07928628921797) rotate(520.4737758145594)"><path class="outline" fill="#A5ABB6" stroke="none" d="M 25 0.5 L 38.98330844543258 0.5 L 38.98330844543258 -0.5 L 25 -0.5 Z M 74.75674594543258 0.5 L 88.74005439086515 0.5 L 88.74005439086515 3.5 L 95.74005439086515 0 L 88.74005439086515 -3.5 L 88.74005439086515 -0.5 L 74.75674594543258 -0.5 Z"/><text text-anchor="middle" pointer-events="none" font-size="8px" fill="#000000" x="56.87002719543258" y="3" transform="rotate(180 56.87002719543258 0)" font-family="sans-serif">WROTE</text></g><g class="relationship" transform="translate(140.82754355659603 -17.445787923062102) rotate(474.0119233599308)"><path class="outline" fill="#A5ABB6" stroke="none" d="M 25 0.5 L 33.20013745115304 0.5 L 33.20013745115304 -0.5 L 25 -0.5 Z M 80.09076245115304 0.5 L 88.29089990230608 0.5 L 88.29089990230608 3.5 L 95.29089990230608 0 L 88.29089990230608 -3.5 L 88.29089990230608 -0.5 L 80.09076245115304 -0.5 Z"/><text text-anchor="middle" pointer-events="none" font-size="8px" fill="#000000" x="56.64544995115304" y="3" transform="rotate(180 56.64544995115304 0)" font-family="sans-serif">DIRECTED</text></g><g class="relationship" transform="translate(44.49088016247923 -17.369730226615488) rotate(426.65705855776105)"><path class="outline" fill="#A5ABB6" stroke="none" d="M 25 0.5 L 33.51562543298363 0.5 L 33.51562543298363 -0.5 L 25 -0.5 Z M 79.07812543298363 0.5 L 87.59375086596727 0.5 L 87.59375086596727 3.5 L 94.59375086596727 0 L 87.59375086596727 -3.5 L 87.59375086596727 -0.5 L 79.07812543298363 -0.5 Z"/><text text-anchor="middle" pointer-events="none" font-size="8px" fill="#000000" x="56.29687543298363" y="3" font-family="sans-serif">ACTED_IN</text></g><g class="relationship" transform="translate(-20.666500620868952 52.067643972754446) rotate(379.7319591214931)"><path class="outline" fill="#A5ABB6" stroke="none" d="M 25 0.5 L 33.5012677197679 0.5 L 33.5012677197679 -0.5 L 25 -0.5 Z M 79.0637677197679 0.5 L 87.5650354395358 0.5 L 87.5650354395358 3.5 L 94.5650354395358 0 L 87.5650354395358 -3.5 L 87.5650354395358 -0.5 L 79.0637677197679 -0.5 Z"/><text text-anchor="middle" pointer-events="none" font-size="8px" fill="#000000" x="56.2825177197679" y="3" font-family="sans-serif">ACTED_IN</text></g><g class="relationship" transform="translate(-14.61535004873069 148.22829862030997) rotate(332.34944165722027)"><path class="outline" fill="#A5ABB6" stroke="none" d="M 25 0.5 L 33.83050233460348 0.5 L 33.83050233460348 -0.5 L 25 -0.5 Z M 79.39300233460348 0.5 L 88.22350466920696 0.5 L 88.22350466920696 3.5 L 95.22350466920696 0 L 88.22350466920696 -3.5 L 88.22350466920696 -0.5 L 79.39300233460348 -0.5 Z"/><text text-anchor="middle" pointer-events="none" font-size="8px" fill="#000000" x="56.61175233460348" y="3" font-family="sans-serif">ACTED_IN</text></g><g class="relationship" transform="translate(58.91670513944742 208.52225720052098) rotate(285.85113889521546)"><path class="outline" fill="#A5ABB6" stroke="none" d="M 25 0.5 L 34.056634911849045 0.5 L 34.056634911849045 -0.5 L 25 -0.5 Z M 79.61913491184905 0.5 L 88.67576982369809 0.5 L 88.67576982369809 3.5 L 95.67576982369809 0 L 88.67576982369809 -3.5 L 88.67576982369809 -0.5 L 79.61913491184905 -0.5 Z"/><text text-anchor="middle" pointer-events="none" font-size="8px" fill="#000000" x="56.837884911849045" y="3" font-family="sans-serif">ACTED_IN</text></g></g><g class="layer nodes"><g class="node" transform="translate(91.87795922999679,92.43523315683036)"><circle class="outline" cx="0" cy="0" r="25" fill="#F79767" stroke="#f36924" stroke-width="2px"/><text text-anchor="middle" pointer-events="none" font-family="sans-serif" dy="1.5625" font-size="25" fill="#FFFFFF"/><text text-anchor="middle" pointer-events="none" font-family="sans-serif" dy="1.5625" font-size="25" fill="#FFFFFF"/><text text-anchor="middle" pointer-events="none" font-family="sans-serif" dy="1.5625" font-size="25" fill="#FFFFFF"/><text text-anchor="middle" pointer-events="none" x="0" y="-5" font-size="10px" fill="#FFFFFF" font-family="sans-serif"> Captain</text><text text-anchor="middle" pointer-events="none" x="0" y="5" font-size="10px" fill="#FFFFFF" font-family="sans-serif"> America:</text><text text-anchor="middle" pointer-events="none" x="0" y="15" font-size="10px" fill="#FFFFFF" font-family="sans-serif"> The Fi…</text></g><g class="node" transform="translate(145.73940682000324,200.19094646366668)"><circle class="outline" cx="0" cy="0" r="25" fill="#57C7E3" stroke="#23b3d7" stroke-width="2px"/><text text-anchor="middle" pointer-events="none" font-family="sans-serif" dy="1.5625" font-size="25" fill="#2A2C34"/><text text-anchor="middle" pointer-events="none" font-family="sans-serif" dy="1.5625" font-size="25" fill="#2A2C34"/><text text-anchor="middle" pointer-events="none" x="0" y="0" font-size="10px" fill="#2A2C34" font-family="sans-serif"> Hugo</text><text text-anchor="middle" pointer-events="none" x="0" y="10" font-size="10px" fill="#2A2C34" font-family="sans-serif"> Weaving</text></g><g class="node" transform="translate(202.9049197224893,139.26083833388586)"><circle class="outline" cx="0" cy="0" r="25" fill="#57C7E3" stroke="#23b3d7" stroke-width="2px"/><text text-anchor="middle" pointer-events="none" font-family="sans-serif" dy="1.5625" font-size="25" fill="#2A2C34"/><text text-anchor="middle" pointer-events="none" font-family="sans-serif" dy="1.5625" font-size="25" fill="#2A2C34"/><text text-anchor="middle" pointer-events="none" x="0" y="0" font-size="10px" fill="#2A2C34" font-family="sans-serif"> Stephen</text><text text-anchor="middle" pointer-events="none" x="0" y="10" font-size="10px" fill="#2A2C34" font-family="sans-serif"> McFeely</text></g><g class="node" transform="translate(205.67408520415955,52.07928628921797)"><circle class="outline" cx="0" cy="0" r="25" fill="#57C7E3" stroke="#23b3d7" stroke-width="2px"/><text text-anchor="middle" pointer-events="none" font-family="sans-serif" dy="1.5625" font-size="25" fill="#2A2C34"/><text text-anchor="middle" pointer-events="none" x="0" y="5" font-size="10px" fill="#2A2C34" font-family="sans-serif"> Christop…</text></g><g class="node" transform="translate(140.82754355659603,-17.445787923062102)"><circle class="outline" cx="0" cy="0" r="25" fill="#57C7E3" stroke="#23b3d7" stroke-width="2px"/><text text-anchor="middle" pointer-events="none" font-family="sans-serif" dy="1.5625" font-size="25" fill="#2A2C34"/><text text-anchor="middle" pointer-events="none" font-family="sans-serif" dy="1.5625" font-size="25" fill="#2A2C34"/><text text-anchor="middle" pointer-events="none" x="0" y="0" font-size="10px" fill="#2A2C34" font-family="sans-serif"> Joe</text><text text-anchor="middle" pointer-events="none" x="0" y="10" font-size="10px" fill="#2A2C34" font-family="sans-serif"> Johnston</text></g><g class="node" transform="translate(44.49088016247923,-17.369730226615488)"><circle class="outline" cx="0" cy="0" r="25" fill="#57C7E3" stroke="#23b3d7" stroke-width="2px"/><text text-anchor="middle" pointer-events="none" font-family="sans-serif" dy="1.5625" font-size="25" fill="#2A2C34"/><text text-anchor="middle" pointer-events="none" font-family="sans-serif" dy="1.5625" font-size="25" fill="#2A2C34"/><text text-anchor="middle" pointer-events="none" x="0" y="0" font-size="10px" fill="#2A2C34" font-family="sans-serif"> Chris</text><text text-anchor="middle" pointer-events="none" x="0" y="10" font-size="10px" fill="#2A2C34" font-family="sans-serif"> Evans</text></g><g class="node" transform="translate(-20.666500620868952,52.067643972754446)"><circle class="outline" cx="0" cy="0" r="25" fill="#57C7E3" stroke="#23b3d7" stroke-width="2px"/><text text-anchor="middle" pointer-events="none" font-family="sans-serif" dy="1.5625" font-size="25" fill="#2A2C34"/><text text-anchor="middle" pointer-events="none" font-family="sans-serif" dy="1.5625" font-size="25" fill="#2A2C34"/><text text-anchor="middle" pointer-events="none" x="0" y="0" font-size="10px" fill="#2A2C34" font-family="sans-serif"> Tommy</text><text text-anchor="middle" pointer-events="none" x="0" y="10" font-size="10px" fill="#2A2C34" font-family="sans-serif"> Lee Jon…</text></g><g class="node" transform="translate(-14.61535004873069,148.22829862030997)"><circle class="outline" cx="0" cy="0" r="25" fill="#57C7E3" stroke="#23b3d7" stroke-width="2px"/><text text-anchor="middle" pointer-events="none" font-family="sans-serif" dy="1.5625" font-size="25" fill="#2A2C34"/><text text-anchor="middle" pointer-events="none" font-family="sans-serif" dy="1.5625" font-size="25" fill="#2A2C34"/><text text-anchor="middle" pointer-events="none" x="0" y="0" font-size="10px" fill="#2A2C34" font-family="sans-serif"> Hayley</text><text text-anchor="middle" pointer-events="none" x="0" y="10" font-size="10px" fill="#2A2C34" font-family="sans-serif"> Atwell</text></g><g class="node" transform="translate(58.91670513944742,208.52225720052098)"><circle class="outline" cx="0" cy="0" r="25" fill="#57C7E3" stroke="#23b3d7" stroke-width="2px"/><text text-anchor="middle" pointer-events="none" font-family="sans-serif" dy="1.5625" font-size="25" fill="#2A2C34"/><text text-anchor="middle" pointer-events="none" x="0" y="5" font-size="10px" fill="#2A2C34" font-family="sans-serif"> Sebastian</text></g></g></svg>